<svg width="21" height="21" viewBox="0 0 21 21" fill="none" xmlns="http://www.w3.org/2000/svg">
<path fill-rule="evenodd" clip-rule="evenodd" d="M0 10.5C0 16.299 4.70103 21 10.5 21C16.299 21 21 16.299 21 10.5C21 4.70103 16.299 0 10.5 0C4.70103 0 0 4.70103 0 10.5ZM8.575 15.3125L8.75363 12.636L8.7535 12.6359L13.6224 8.24206C13.8361 8.05241 13.5758 7.95992 13.2921 8.13194L7.28319 11.9229L4.68768 11.1128C4.12716 10.9412 4.12313 10.556 4.81351 10.2791L14.9276 6.37914C15.3896 6.16941 15.8354 6.49009 15.6591 7.19709L13.9367 15.3139C13.8164 15.8907 13.4679 16.0286 12.985 15.7622L10.3612 13.8236L9.1 15.05C9.09602 15.0539 9.09208 15.0577 9.08814 15.0616C8.94709 15.1989 8.83037 15.3125 8.575 15.3125Z" fill="#5196FF"/>
</svg>
