<svg width="22" height="21" viewBox="0 0 22 21" fill="none" xmlns="http://www.w3.org/2000/svg">
<path d="M11 0C17.0751 0 22 4.70103 22 10.5C22 16.299 17.0751 21 11 21C4.92488 21 0 16.299 0 10.5C0 4.70103 4.92488 0 11 0Z" fill="#7F4DA0"/>
<path d="M13.9306 9.16939C13.8771 8.75451 13.7435 8.42874 13.5062 8.14017C13.1981 7.7686 12.8045 7.54613 12.2216 7.41414C11.8417 7.32616 11.6883 7.33626 11.5509 7.45605C11.423 7.56827 11.398 7.79323 11.4957 7.93896C11.5645 8.04471 11.6439 8.08255 11.8645 8.12389C12.1584 8.17552 12.3614 8.2425 12.5462 8.3433C12.9382 8.55942 13.1208 8.89757 13.1404 9.44506C13.1495 9.70209 13.1728 9.7811 13.2668 9.87227C13.4411 10.0389 13.7514 10.0065 13.883 9.80709C13.9313 9.73192 13.9387 9.6992 13.9438 9.52468C13.9471 9.41662 13.9422 9.25575 13.9306 9.16939Z" fill="white"/>
<path d="M15.4662 9.63727C15.3888 8.36616 14.868 7.3435 13.9358 6.62399C13.4106 6.21969 12.7758 5.94166 12.0799 5.80647C11.825 5.75813 11.3557 5.71893 11.2752 5.74133C11.1992 5.76211 11.0918 5.84064 11.0439 5.91165C10.9932 5.98865 10.9818 6.16059 11.025 6.26008C11.0947 6.42633 11.2244 6.48504 11.5878 6.5154C12.1479 6.56217 12.7257 6.75003 13.1622 7.02811C13.6605 7.34477 14.0567 7.77785 14.313 8.28675C14.5344 8.72399 14.6706 9.35412 14.6668 9.91841C14.6656 10.1225 14.6986 10.2377 14.7845 10.322C14.9143 10.4516 15.1035 10.4799 15.2705 10.3938C15.4555 10.301 15.4988 10.1379 15.4662 9.63727Z" fill="white"/>
<path d="M17.1656 14.5321C17.1396 14.4594 17.0788 14.3474 17.0354 14.283C16.7618 13.8887 15.2921 12.7908 14.5583 12.4317C14.1393 12.2263 13.8289 12.1578 13.5987 12.2221C13.3512 12.2885 13.221 12.3985 12.8063 12.8904C12.6392 13.0876 12.4677 13.2723 12.4221 13.3013C12.3092 13.3761 12.0877 13.4363 11.9314 13.4363C11.5689 13.4342 10.9111 13.21 10.4052 12.9153C10.0123 12.687 9.50861 12.2782 9.12214 11.8734C8.66624 11.3982 8.35581 10.9789 8.11046 10.5057C7.79353 9.89762 7.71318 9.5261 7.84559 9.25419C7.87818 9.18572 7.92163 9.1131 7.94111 9.09026C7.96068 9.06952 8.16478 8.90971 8.3905 8.73536C8.83344 8.39914 8.90508 8.32236 8.98753 8.09197C9.09175 7.79933 9.06357 7.50047 8.90288 7.19956C8.77913 6.97123 8.45568 6.47314 8.2212 6.15144C7.91077 5.72807 7.13788 4.82319 6.9837 4.70069C6.70585 4.48487 6.34982 4.44751 5.95685 4.59281C5.54224 4.74637 4.765 5.34412 4.43282 5.76128C4.13322 6.13902 4.0182 6.40672 4.00081 6.75952C3.98563 7.05011 4.01167 7.17047 4.17233 7.54199C5.4293 10.4559 7.30503 12.7825 9.88201 14.6296C11.228 15.5947 12.6239 16.3294 14.072 16.8317C14.9165 17.1243 15.2834 17.1388 15.7154 16.8981C15.8978 16.7943 16.3493 16.3522 16.6012 16.0305C17.018 15.495 17.1722 15.2481 17.2156 15.0509C17.246 14.916 17.2221 14.6815 17.1656 14.5321Z" fill="white"/>
<path d="M17.0296 9.92894C17.0018 9.20991 16.875 8.62016 16.6105 7.96264C16.3495 7.31584 16.0852 6.89379 15.5862 6.32294C15.1144 5.78766 14.748 5.48206 14.1668 5.14186C13.356 4.66788 12.3692 4.35421 11.2633 4.2223C10.8862 4.1762 10.8008 4.17949 10.6852 4.25318C10.4609 4.39277 10.4639 4.74098 10.6888 4.87849C10.7633 4.92224 10.8293 4.93816 11.131 4.97583C11.5941 5.03537 11.8919 5.09146 12.2452 5.18347C13.6308 5.54502 14.6963 6.284 15.4086 7.38103C16.0047 8.29541 16.2522 9.20982 16.2171 10.3777C16.2048 10.7726 16.2137 10.842 16.2769 10.9369C16.398 11.1137 16.7173 11.1487 16.8811 11.002C16.9831 10.9126 17.0023 10.8454 17.0223 10.5075C17.032 10.3312 17.034 10.071 17.0296 9.92894Z" fill="white"/>
</svg>
