<svg width="21" height="21" viewBox="0 0 21 21" fill="none" xmlns="http://www.w3.org/2000/svg">
<path d="M10.5 21C16.299 21 21 16.299 21 10.5C21 4.70103 16.299 0 10.5 0C4.70103 0 0 4.70103 0 10.5C0 16.299 4.70103 21 10.5 21Z" fill="#25D366"/>
<path fill-rule="evenodd" clip-rule="evenodd" d="M10.8462 16.3418H10.8436C9.79861 16.3414 8.77184 16.0793 7.85987 15.5819L4.55005 16.4501L5.43581 13.2147C4.88942 12.2678 4.60194 11.1937 4.60237 10.0933C4.60377 6.65082 7.40465 3.8501 10.8461 3.8501C12.5163 3.85082 14.084 4.50103 15.2628 5.68123C16.4416 6.86134 17.0904 8.43 17.0897 10.0983C17.0884 13.54 14.2886 16.3404 10.8462 16.3418ZM8.01326 14.4515L8.20274 14.564C8.99951 15.0368 9.91284 15.287 10.8441 15.2874H10.8462C13.7064 15.2874 16.0344 12.9594 16.0355 10.0979C16.0361 8.71127 15.4968 7.40743 14.517 6.42651C13.5373 5.44559 12.2343 4.90515 10.8482 4.90467C7.98569 4.90467 5.65771 7.23248 5.65657 10.0937C5.65618 11.0743 5.93054 12.0292 6.44998 12.8554L6.5734 13.0518L6.04914 14.9668L8.01326 14.4515ZM13.778 11.4425C13.8868 11.4951 13.9603 11.5306 13.9916 11.583C14.0306 11.648 14.0306 11.9604 13.9007 12.3248C13.7706 12.6892 13.1474 13.0218 12.8476 13.0666C12.5789 13.1068 12.2387 13.1235 11.865 13.0048C11.6384 12.9329 11.3479 12.8369 10.9757 12.6762C9.51314 12.0447 8.52474 10.6271 8.33792 10.3592C8.32484 10.3405 8.3157 10.3274 8.31058 10.3205L8.30936 10.3189C8.2268 10.2087 7.67358 9.47059 7.67358 8.70668C7.67358 7.98808 8.02656 7.61144 8.18904 7.43806C8.2002 7.42616 8.21044 7.41522 8.21958 7.40524C8.3626 7.24906 8.53161 7.20999 8.6356 7.20999C8.73959 7.20999 8.84372 7.21095 8.93463 7.2155C8.94583 7.21607 8.95751 7.21603 8.96954 7.21594C9.06046 7.21541 9.17381 7.21476 9.28564 7.48334C9.32864 7.58668 9.3916 7.73993 9.45797 7.90154C9.59219 8.22836 9.74055 8.58943 9.76662 8.64171C9.80565 8.7198 9.83164 8.81084 9.77962 8.91501C9.77183 8.93063 9.76461 8.94538 9.7577 8.95946C9.71863 9.03918 9.68993 9.09784 9.62361 9.17524C9.59757 9.20569 9.57062 9.2385 9.54367 9.27131C9.48999 9.33668 9.43636 9.40204 9.38963 9.44859C9.31149 9.52638 9.23021 9.61077 9.32121 9.76696C9.41221 9.92314 9.72532 10.434 10.1891 10.8477C10.6876 11.2923 11.1209 11.4803 11.3406 11.5756C11.3834 11.5942 11.4182 11.6093 11.4437 11.622C11.5996 11.7001 11.6906 11.6871 11.7817 11.583C11.8727 11.4789 12.1716 11.1274 12.2756 10.9713C12.3796 10.8151 12.4836 10.8412 12.6266 10.8932C12.7697 10.9453 13.5366 11.3227 13.6927 11.4007C13.7231 11.416 13.7516 11.4298 13.778 11.4425Z" fill="#FDFDFD"/>
</svg>
