<svg width="23" height="28" viewBox="0 0 23 28" fill="none" xmlns="http://www.w3.org/2000/svg">
<path fill-rule="evenodd" clip-rule="evenodd" d="M14.2496 4H10.513V12.2258H14.2496V12.2262C16.8701 12.2262 18.6967 10.5085 18.6967 8.11308C18.6967 5.71768 16.8701 4 14.2496 4ZM6.51298 4V12.2258H2.00021C0.89564 12.2258 0.000209808 13.1212 0.000209808 14.2258C0.000209808 15.3303 0.89564 16.2258 2.00021 16.2258H6.51298V18.3396H2C0.895431 18.3396 0 19.235 0 20.3396C0 21.4442 0.895431 22.3396 2 22.3396H6.51298V25.0643C6.51298 26.1688 7.40841 27.0643 8.51298 27.0643C9.61755 27.0643 10.513 26.1688 10.513 25.0643V22.3396H13.6047C14.7093 22.3396 15.6047 21.4442 15.6047 20.3396C15.6047 19.235 14.7093 18.3396 13.6047 18.3396H10.513V16.2258H14.2496V16.2262C18.7504 16.2262 22.6967 13.0327 22.6967 8.11308C22.6967 3.19346 18.7504 0 14.2496 0H2.00021C0.89564 0 0.000209808 0.89543 0.000209808 2C0.000209808 3.10457 0.89564 4 2.00021 4H6.51298Z" fill="black"/>
</svg>
