<svg width="86" height="34" viewBox="0 0 86 34" fill="none" xmlns="http://www.w3.org/2000/svg">
<path d="M17.4618 18.9C17.4618 21.204 16.7658 23.04 15.3738 24.408C13.5978 26.136 10.7538 27 6.84177 27H0.181765V0.36H6.58976C9.51777 0.36 11.7618 0.924 13.3218 2.052C15.0018 3.276 15.8418 5.052 15.8418 7.38C15.8418 8.796 15.4458 10.008 14.6538 11.016C14.1978 11.592 13.6218 12.072 12.9258 12.456C14.3658 12.936 15.4818 13.752 16.2738 14.904C17.0658 16.056 17.4618 17.388 17.4618 18.9ZM10.9098 7.884C10.9098 6.756 10.4658 5.976 9.57777 5.544C9.02577 5.28 8.30577 5.148 7.41777 5.148H5.11377V10.62H7.41777C8.49777 10.62 9.34976 10.392 9.97376 9.936C10.5978 9.456 10.9098 8.772 10.9098 7.884ZM12.5298 18.864C12.5298 18.024 12.3138 17.328 11.8818 16.776C11.1858 15.864 9.99777 15.408 8.31776 15.408H5.11377V22.212H8.31776C9.18176 22.212 9.94977 22.068 10.6218 21.78C11.8938 21.228 12.5298 20.256 12.5298 18.864ZM39.0646 7.056L27.6166 33.66H22.4686L26.1406 25.128L18.8326 7.056H24.2686L28.8406 19.836L33.6286 7.056H39.0646ZM55.4834 5.148H46.8794V11.304H55.0874V16.092H46.8794V27H41.9474V0.36H55.4834V5.148ZM63.5283 4.752H58.7403V0.36H63.5283V4.752ZM63.5283 27H58.7403V7.056H63.5283V27ZM85.1007 27H80.3127V16.416C80.3127 14.4 79.8807 12.936 79.0167 12.024C78.3447 11.304 77.4447 10.944 76.3167 10.944C74.6127 10.944 73.4367 11.628 72.7887 12.996C72.3807 13.836 72.1767 14.976 72.1767 16.416V27H67.3887V7.056H71.7807V8.892C72.3807 8.22 72.9807 7.704 73.5807 7.344C74.6607 6.72 75.9087 6.408 77.3247 6.408C79.6767 6.408 81.5607 7.2 82.9767 8.784C84.3927 10.368 85.1007 12.552 85.1007 15.336V27Z" fill="#1EAF1E"/>
</svg>
