<svg width="86" height="34" viewBox="0 0 86 34" fill="none" xmlns="http://www.w3.org/2000/svg">
<path d="M0.448 27V0.36H6.856C9.952 0.383999 12.268 1.02 13.804 2.268C15.34 3.492 16.108 5.196 16.108 7.38C16.108 8.58 15.844 9.612 15.316 10.476C14.788 11.316 14.08 11.976 13.192 12.456C14.608 12.936 15.712 13.752 16.504 14.904C17.32 16.056 17.728 17.388 17.728 18.9C17.728 21.492 16.84 23.496 15.064 24.912C13.288 26.304 10.636 27 7.108 27H0.448ZM5.38 22.212H8.584C9.928 22.236 10.96 21.948 11.68 21.348C12.424 20.748 12.796 19.92 12.796 18.864C12.796 17.808 12.436 16.98 11.716 16.38C10.996 15.756 9.952 15.432 8.584 15.408H5.38V22.212ZM5.38 10.62H7.684C8.812 10.62 9.664 10.38 10.24 9.9C10.84 9.396 11.152 8.724 11.176 7.884C11.176 6.972 10.876 6.288 10.276 5.832C9.676 5.376 8.812 5.148 7.684 5.148H5.38V10.62ZM33.8948 7.056H39.3308L27.8828 33.66H22.7348L26.4068 25.128L19.0988 7.056H24.5348L29.1068 19.836L33.8948 7.056ZM42.2136 27V0.36H55.7496V5.148H47.1456V11.304H55.3536V16.092H47.1456V27H42.2136ZM59.0065 27V7.056H63.7945V27H59.0065ZM59.0065 4.752V0.36H63.7945V4.752H59.0065ZM67.6549 27V7.056H72.0469V8.892H72.1189C72.7429 8.1 73.5109 7.488 74.4229 7.056C75.3589 6.624 76.4149 6.408 77.5909 6.408C79.9189 6.408 81.7909 7.212 83.2069 8.82C84.6469 10.404 85.3669 12.576 85.3669 15.336V27H80.5789V16.416C80.5549 14.592 80.1949 13.224 79.4989 12.312C78.8029 11.4 77.8309 10.944 76.5829 10.944C75.1909 10.944 74.1469 11.412 73.4509 12.348C72.7549 13.284 72.4189 14.64 72.4429 16.416V27H67.6549Z" fill="white"/>
</svg>
