<svg width="11" height="15" viewBox="0 0 11 15" fill="none" xmlns="http://www.w3.org/2000/svg">
<path fill-rule="evenodd" clip-rule="evenodd" d="M7.15078 0.5H1C0.723857 0.5 0.5 0.723858 0.5 1C0.5 1.27614 0.723857 1.5 1 1.5H3.26611V6.97442H1C0.723857 6.97442 0.5 7.19827 0.5 7.47442C0.5 7.75056 0.723857 7.97442 1 7.97442H3.26611V10.2118H1.00005C0.723903 10.2118 0.500046 10.4357 0.500046 10.7118C0.500046 10.988 0.723903 11.2118 1.00005 11.2118H3.26611V13.7729C3.26611 14.049 3.48996 14.2729 3.76611 14.2729C4.04225 14.2729 4.26611 14.049 4.26611 13.7729V11.2118H6.8271C7.10324 11.2118 7.3271 10.988 7.3271 10.7118C7.3271 10.4357 7.10324 10.2118 6.8271 10.2118H4.26611V7.97442H7.15078V7.9746C9.19945 7.9746 10.888 6.46547 10.888 4.23735C10.888 2.00923 9.19945 0.500103 7.15078 0.500103V0.5ZM7.14053 1.5H4.26611V6.97442H7.15078V6.9746C8.67787 6.9746 9.88803 5.88298 9.88803 4.23735C9.88803 2.59172 8.67787 1.5001 7.15078 1.5001C7.14735 1.5001 7.14393 1.50007 7.14053 1.5Z" fill="black"/>
</svg>
